<svg width="657.9px" height="122px" xmlns="http://www.w3.org/2000/svg" viewBox="-78.94687499999998 14 657.89375 122" style="background: rgba(0, 0, 0, 0)" preserveAspectRatio="xMidYMid"><defs><linearGradient id="editing-outline-gradient" x1="-0.41354545764260087" x2="1.4135454576426008" y1="0.09326335692419985" y2="0.9067366430758002"><stop offset="0" stop-color="#6e00ff"></stop><stop offset="1" stop-color="#ff00ad"></stop></linearGradient><filter id="editing-outline" x="-100%" y="-100%" width="300%" height="300%"><feMorphology in="SourceGraphic" operator="dilate" radius="2" result="outline"></feMorphology><feComposite operator="out" in="outline" in2="SourceAlpha"></feComposite></filter></defs><g filter="url(#editing-outline)"><g transform="matrix(1.4,0,0,1.3,-57.8,150.1)"><path d="M 8.3 -37.3 L -5.6 -37.3 L 2.5 -79.5 L 16.6 -79.5 L 8.3 -37.3 Z M 64.1 -36 L 64.1 -36 L 64.1 -36 Q 56.3 -36 56.3 -42 L 56.3 -42 L 56.3 -42 Q 56.3 -44.6 57.4 -49.7 L 57.4 -49.7 L 57.4 -49.7 Q 58.6 -54.8 58.9 -56.8 L 58.9 -56.8 L 58.9 -56.8 Q 59.8 -61.5 59.8 -63 L 59.8 -63 L 59.8 -63 Q 59.8 -66.2 57.4 -66.2 L 57.4 -66.2 L 57.4 -66.2 Q 55.8 -66.2 54.3 -64 L 54.3 -64 L 54.3 -64 Q 52.7 -61.8 52 -57.4 L 52 -57.4 L 48.1 -37.3 L 35.6 -36 L 39 -53.4 L 39 -53.4 Q 39.6 -56.3 40.1 -59.5 L 40.1 -59.5 L 40.1 -59.5 Q 40.6 -62.8 40.6 -63.3 L 40.6 -63.3 L 40.6 -63.3 Q 40.6 -66.2 38.5 -66.2 L 38.5 -66.2 L 38.5 -66.2 Q 37 -66.2 35.4 -64.1 L 35.4 -64.1 L 35.4 -64.1 Q 33.8 -61.9 32.9 -57.4 L 32.9 -57.4 L 29 -37.3 L 16.4 -36 L 23.1 -69.9 L 33.5 -71.2 L 32.4 -64.7 L 32.4 -64.7 Q 34.1 -68.2 37.2 -69.7 L 37.2 -69.7 L 37.2 -69.7 Q 40.2 -71.2 45 -71.2 L 45 -71.2 L 45 -71.2 Q 47.8 -71.2 49.6 -69.8 L 49.6 -69.8 L 49.6 -69.8 Q 51.4 -68.5 52 -66.3 L 52 -66.3 L 52 -66.3 Q 53 -68.6 55.8 -69.9 L 55.8 -69.9 L 55.8 -69.9 Q 58.6 -71.2 62 -71.2 L 62 -71.2 L 62 -71.2 Q 65.5 -71.2 67.2 -70.4 L 67.2 -70.4 L 67.2 -70.4 Q 68.9 -69.7 69.9 -68.5 L 69.9 -68.5 L 69.9 -68.5 Q 71.6 -66.2 71.6 -62.2 L 71.6 -62.2 L 71.6 -62.2 Q 71.6 -58.1 69.9 -49.7 L 69.9 -49.7 L 69.9 -49.7 Q 69 -45.6 69 -44.1 L 69 -44.1 L 69 -44.1 Q 69 -42.6 69.8 -41.7 L 69.8 -41.7 L 69.8 -41.7 Q 70.7 -40.8 72 -40.7 L 72 -40.7 L 72 -40.7 Q 71.4 -38.5 69.1 -37.3 L 69.1 -37.3 L 69.1 -37.3 Q 66.9 -36 64.1 -36 Z M 79.7 -39.2 L 79.7 -39.2 L 79.7 -39.2 Q 78.2 -40.8 77.5 -43.5 L 77.5 -43.5 L 77.5 -43.5 Q 76.9 -46.1 76.9 -50.4 L 76.9 -50.4 L 76.9 -50.4 Q 76.9 -54.7 78.3 -58.6 L 78.3 -58.6 L 78.3 -58.6 Q 79.8 -62.5 82.5 -65.3 L 82.5 -65.3 L 82.5 -65.3 Q 88 -71.2 97.1 -71.2 L 97.1 -71.2 L 97.1 -71.2 Q 100.3 -71.2 102.7 -70.1 L 102.7 -70.1 L 113.7 -71.2 L 108.9 -46.2 L 108.9 -46.2 Q 108.7 -45.4 108.7 -44 L 108.7 -44 L 108.7 -44 Q 108.7 -42.6 109.6 -41.7 L 109.6 -41.7 L 109.6 -41.7 Q 110.5 -40.8 111.7 -40.7 L 111.7 -40.7 L 111.7 -40.7 Q 111.1 -38.5 108.8 -37.3 L 108.8 -37.3 L 108.8 -37.3 Q 106.4 -36 103.8 -36 L 103.8 -36 L 103.8 -36 Q 101.2 -36 99.4 -37 L 99.4 -37 L 99.4 -37 Q 97.7 -38 97.1 -39.6 L 97.1 -39.6 L 97.1 -39.6 Q 96.1 -38 93.9 -37 L 93.9 -37 L 93.9 -37 Q 91.8 -36 88.9 -36 L 88.9 -36 L 88.9 -36 Q 85.9 -36 83.6 -36.7 L 83.6 -36.7 L 83.6 -36.7 Q 81.2 -37.5 79.7 -39.2 Z M 93.2 -65.2 L 93.2 -65.2 L 93.2 -65.2 Q 92.5 -64 91.8 -62.1 L 91.8 -62.1 L 91.8 -62.1 Q 91.2 -60.1 90.1 -54.9 L 90.1 -54.9 L 90.1 -54.9 Q 89.1 -49.7 89.1 -46 L 89.1 -46 L 89.1 -46 Q 89.1 -42.2 89.7 -41.2 L 89.7 -41.2 L 89.7 -41.2 Q 90.2 -40.1 91.3 -40.1 L 91.3 -40.1 L 91.3 -40.1 Q 93.3 -40.1 94.8 -42 L 94.8 -42 L 94.8 -42 Q 96.3 -44 96.9 -47.4 L 96.9 -47.4 L 100.3 -66.2 L 100.3 -66.2 Q 98.9 -67.3 97.4 -67.3 L 97.4 -67.3 L 97.4 -67.3 Q 95.8 -67.3 94.9 -66.8 L 94.9 -66.8 L 94.9 -66.8 Q 93.9 -66.3 93.2 -65.2 Z M 121.4 -64 L 121.4 -64 L 121.4 -64 Q 123.6 -67.1 126.9 -69.1 L 126.9 -69.1 L 126.9 -69.1 Q 130.2 -71.2 134.2 -71.2 L 134.2 -71.2 L 134.2 -71.2 Q 138.2 -71.2 140.2 -69.9 L 140.2 -69.9 L 152.7 -71.2 L 148.3 -46.6 L 148.3 -46.6 Q 146.1 -34.1 141.4 -29.1 L 141.4 -29.1 L 141.4 -29.1 Q 136.8 -24.5 128 -24.5 L 128 -24.5 L 128 -24.5 Q 121.3 -24.5 117.4 -26.6 L 117.4 -26.6 L 117.4 -26.6 Q 113.6 -28.7 113.6 -32.2 L 113.6 -32.2 L 113.6 -32.2 Q 113.6 -34.8 115.6 -36.3 L 115.6 -36.3 L 115.6 -36.3 Q 117.6 -37.8 120.6 -37.8 L 120.6 -37.8 L 120.6 -37.8 Q 123.3 -37.8 125.4 -36.6 L 125.4 -36.6 L 125.4 -36.6 Q 126.6 -36 127.2 -35.1 L 127.2 -35.1 L 127.2 -35.1 Q 125.7 -33.8 125.7 -31.7 L 125.7 -31.7 L 125.7 -31.7 Q 125.7 -28.9 128.2 -28.9 L 128.2 -28.9 L 128.2 -28.9 Q 132.5 -28.9 135 -39 L 135 -39 L 135 -39 Q 135.7 -41.8 136.2 -44.6 L 136.2 -44.6 L 136.2 -44.6 Q 133.4 -41 126.8 -41 L 126.8 -41 L 126.8 -41 Q 122.3 -41 119.7 -43.2 L 119.7 -43.2 L 119.7 -43.2 Q 117 -45.4 117 -50.5 L 117 -50.5 L 117 -50.5 Q 117 -53.7 118.1 -57.3 L 118.1 -57.3 L 118.1 -57.3 Q 119.2 -60.9 121.4 -64 Z M 129.7 -50.3 L 129.7 -50.3 L 129.7 -50.3 Q 129.7 -46 132 -46 L 132 -46 L 132 -46 Q 133.5 -46 135 -47.6 L 135 -47.6 L 135 -47.6 Q 136.1 -49 136.6 -51 L 136.6 -51 L 139.8 -67.4 L 139.8 -67.4 Q 139.5 -67.5 139.2 -67.6 L 139.2 -67.6 L 139.2 -67.6 Q 138.6 -67.8 137.7 -67.8 L 137.7 -67.8 L 137.7 -67.8 Q 133.8 -67.8 131.5 -61.4 L 131.5 -61.4 L 131.5 -61.4 Q 129.7 -56.5 129.7 -50.3 Z M 181.1 -48.1 L 181.1 -48.1 L 181.1 -48.1 Q 182.7 -47 182.7 -44.6 L 182.7 -44.6 L 182.7 -44.6 Q 182.7 -42.2 181.5 -40.6 L 181.5 -40.6 L 181.5 -40.6 Q 180.3 -39.1 178.3 -38.1 L 178.3 -38.1 L 178.3 -38.1 Q 174.2 -36 169.8 -36 L 169.8 -36 L 169.8 -36 Q 165.4 -36 162.8 -36.9 L 162.8 -36.9 L 162.8 -36.9 Q 160.2 -37.9 158.5 -39.7 L 158.5 -39.7 L 158.5 -39.7 Q 155.1 -43.1 155.1 -49.3 L 155.1 -49.3 L 155.1 -49.3 Q 155.1 -59 160.3 -64.8 L 160.3 -64.8 L 160.3 -64.8 Q 165.9 -71.2 175.7 -71.2 L 175.7 -71.2 L 175.7 -71.2 Q 181.8 -71.2 184.8 -68.6 L 184.8 -68.6 L 184.8 -68.6 Q 187.1 -66.7 187.1 -63.6 L 187.1 -63.6 L 187.1 -63.6 Q 187.1 -52.3 167.6 -52.3 L 167.6 -52.3 L 167.6 -52.3 Q 167.4 -50.6 167.4 -49.2 L 167.4 -49.2 L 167.4 -49.2 Q 167.4 -46.3 168.7 -45.2 L 168.7 -45.2 L 168.7 -45.2 Q 170 -44 172.4 -44 L 172.4 -44 L 172.4 -44 Q 174.8 -44 177.4 -45.2 L 177.4 -45.2 L 177.4 -45.2 Q 180 -46.3 181.1 -48.1 Z M 168.1 -55 L 168.1 -55 L 168.1 -55 Q 172.6 -55 175.2 -57.9 L 175.2 -57.9 L 175.2 -57.9 Q 177.8 -60.6 177.8 -64.8 L 177.8 -64.8 L 177.8 -64.8 Q 177.8 -66.3 177.3 -67.1 L 177.3 -67.1 L 177.3 -67.1 Q 176.8 -67.9 175.7 -67.9 L 175.7 -67.9 L 175.7 -67.9 Q 174.6 -67.9 173.7 -67.5 L 173.7 -67.5 L 173.7 -67.5 Q 172.7 -67.1 171.8 -65.7 L 171.8 -65.7 L 171.8 -65.7 Q 169.4 -62.5 168.1 -55 Z M 208.4 -59.7 L 208.4 -59.7 L 208.4 -59.7 Q 209.3 -62.1 209.3 -64.1 L 209.3 -64.1 L 209.3 -64.1 Q 209.3 -67.9 206.2 -67.9 L 206.2 -67.9 L 206.2 -67.9 Q 204.6 -67.9 203.3 -66.5 L 203.3 -66.5 L 203.3 -66.5 Q 202 -65 202 -63.2 L 202 -63.2 L 202 -63.2 Q 202 -62 203 -60.9 L 203 -60.9 L 203 -60.9 Q 204.5 -59.5 208.2 -57.2 L 208.2 -57.2 L 208.2 -57.2 Q 212 -54.9 213.5 -53 L 213.5 -53 L 213.5 -53 Q 214.9 -51.1 214.9 -48.6 L 214.9 -48.6 L 214.9 -48.6 Q 214.9 -46 213.7 -43.6 L 213.7 -43.6 L 213.7 -43.6 Q 212.4 -41.2 210.2 -39.6 L 210.2 -39.6 L 210.2 -39.6 Q 205.4 -36 197.7 -36 L 197.7 -36 L 197.7 -36 Q 193.5 -36 190.3 -38.2 L 190.3 -38.2 L 190.3 -38.2 Q 187.1 -40.3 187.1 -42.8 L 187.1 -42.8 L 187.1 -42.8 Q 187.1 -45.3 189 -46.7 L 189 -46.7 L 189 -46.7 Q 190.8 -48.2 193.5 -48.2 L 193.5 -48.2 L 193.5 -48.2 Q 196.2 -48.2 197.8 -47.2 L 197.8 -47.2 L 197.8 -47.2 Q 197 -45.1 197 -43.7 L 197 -43.7 L 197 -43.7 Q 197 -39.4 200.6 -39.4 L 200.6 -39.4 L 200.6 -39.4 Q 202.1 -39.4 203.1 -40.4 L 203.1 -40.4 L 203.1 -40.4 Q 204.2 -41.4 204.2 -43 L 204.2 -43 L 204.2 -43 Q 204.2 -46.3 198.6 -49.7 L 198.6 -49.7 L 198.6 -49.7 Q 194.2 -52.7 193.1 -53.8 L 193.1 -53.8 L 193.1 -53.8 Q 191.4 -55.9 191.4 -58.4 L 191.4 -58.4 L 191.4 -58.4 Q 191.4 -61 192.6 -63.4 L 192.6 -63.4 L 192.6 -63.4 Q 193.8 -65.9 196.1 -67.6 L 196.1 -67.6 L 196.1 -67.6 Q 200.8 -71.2 208.9 -71.2 L 208.9 -71.2 L 208.9 -71.2 Q 213 -71.2 215.5 -69.5 L 215.5 -69.5 L 215.5 -69.5 Q 218 -67.8 218 -65 L 218 -65 L 218 -65 Q 218 -62.2 216.3 -60.6 L 216.3 -60.6 L 216.3 -60.6 Q 214.6 -59 211.5 -59 L 211.5 -59 L 211.5 -59 Q 209.4 -59 208.4 -59.7 Z M 259.4 -57.9 L 272.4 -59 L 272.4 -59 Q 267.8 -48.9 267.8 -37.2 L 267.8 -37.2 L 267.8 -37.2 Q 266 -36 263.5 -36 L 263.5 -36 L 263.5 -36 Q 261 -36 259.4 -37.2 L 259.4 -37.2 L 259.4 -37.2 Q 257.8 -38.3 257.5 -39.6 L 257.5 -39.6 L 257.5 -39.6 Q 255.9 -37.9 253.3 -36.9 L 253.3 -36.9 L 253.3 -36.9 Q 250.7 -36 247.9 -36 L 247.9 -36 L 247.9 -36 Q 245.2 -36 242.8 -36.9 L 242.8 -36.9 L 242.8 -36.9 Q 240.4 -37.8 238.5 -39.8 L 238.5 -39.8 L 238.5 -39.8 Q 234.4 -44.1 234.4 -52.4 L 234.4 -52.4 L 234.4 -52.4 Q 234.4 -65.2 241.3 -72.8 L 241.3 -72.8 L 241.3 -72.8 Q 248.3 -80.8 260.8 -80.8 L 260.8 -80.8 L 260.8 -80.8 Q 269.4 -80.8 272.5 -76.3 L 272.5 -76.3 L 272.5 -76.3 Q 273.5 -74.9 273.5 -73.2 L 273.5 -73.2 L 273.5 -73.2 Q 273.5 -71.5 272.7 -70.1 L 272.7 -70.1 L 272.7 -70.1 Q 272 -68.6 270.8 -67.5 L 270.8 -67.5 L 270.8 -67.5 Q 268.1 -64.9 264.7 -64.9 L 264.7 -64.9 L 264.7 -64.9 Q 263.4 -64.9 262.1 -65.4 L 262.1 -65.4 L 262.1 -65.4 Q 262.3 -67.3 262.3 -69.5 L 262.3 -69.5 L 262.3 -69.5 Q 262.3 -71.8 262.2 -72.8 L 262.2 -72.8 L 262.2 -72.8 Q 262 -73.8 261.6 -74.6 L 261.6 -74.6 L 261.6 -74.6 Q 260.8 -76.4 259 -76.4 L 259 -76.4 L 259 -76.4 Q 257.1 -76.4 255.1 -74.4 L 255.1 -74.4 L 255.1 -74.4 Q 253.1 -72.5 251.5 -69.3 L 251.5 -69.3 L 251.5 -69.3 Q 248 -62.1 248 -53.4 L 248 -53.4 L 248 -53.4 Q 248 -49.5 249.5 -46.7 L 249.5 -46.7 L 249.5 -46.7 Q 251.2 -43.6 254.1 -43.6 L 254.1 -43.6 L 254.1 -43.6 Q 255.2 -43.6 256.1 -44.1 L 256.1 -44.1 L 256.1 -44.1 Q 257 -44.6 257.4 -45 L 257.4 -45 L 259.4 -57.9 Z M 278.3 -39.2 L 278.3 -39.2 L 278.3 -39.2 Q 276.8 -40.8 276.1 -43.5 L 276.1 -43.5 L 276.1 -43.5 Q 275.4 -46.1 275.4 -50.4 L 275.4 -50.4 L 275.4 -50.4 Q 275.4 -54.7 276.9 -58.6 L 276.9 -58.6 L 276.9 -58.6 Q 278.4 -62.5 281.1 -65.3 L 281.1 -65.3 L 281.1 -65.3 Q 286.6 -71.2 295.7 -71.2 L 295.7 -71.2 L 295.7 -71.2 Q 298.9 -71.2 301.3 -70.1 L 301.3 -70.1 L 312.2 -71.2 L 307.5 -46.2 L 307.5 -46.2 Q 307.3 -45.4 307.3 -44 L 307.3 -44 L 307.3 -44 Q 307.3 -42.6 308.2 -41.7 L 308.2 -41.7 L 308.2 -41.7 Q 309 -40.8 310.3 -40.7 L 310.3 -40.7 L 310.3 -40.7 Q 309.7 -38.5 307.4 -37.3 L 307.4 -37.3 L 307.4 -37.3 Q 305 -36 302.4 -36 L 302.4 -36 L 302.4 -36 Q 299.8 -36 298 -37 L 298 -37 L 298 -37 Q 296.2 -38 295.7 -39.6 L 295.7 -39.6 L 295.7 -39.6 Q 294.7 -38 292.5 -37 L 292.5 -37 L 292.5 -37 Q 290.4 -36 287.4 -36 L 287.4 -36 L 287.4 -36 Q 284.5 -36 282.2 -36.7 L 282.2 -36.7 L 282.2 -36.7 Q 279.8 -37.5 278.3 -39.2 Z M 291.8 -65.2 L 291.8 -65.2 L 291.8 -65.2 Q 291.1 -64 290.4 -62.1 L 290.4 -62.1 L 290.4 -62.1 Q 289.8 -60.1 288.7 -54.9 L 288.7 -54.9 L 288.7 -54.9 Q 287.7 -49.7 287.7 -46 L 287.7 -46 L 287.7 -46 Q 287.7 -42.2 288.2 -41.2 L 288.2 -41.2 L 288.2 -41.2 Q 288.8 -40.1 289.8 -40.1 L 289.8 -40.1 L 289.8 -40.1 Q 291.9 -40.1 293.4 -42 L 293.4 -42 L 293.4 -42 Q 294.9 -44 295.5 -47.4 L 295.5 -47.4 L 298.9 -66.2 L 298.9 -66.2 Q 297.5 -67.3 296 -67.3 L 296 -67.3 L 296 -67.3 Q 294.4 -67.3 293.5 -66.8 L 293.5 -66.8 L 293.5 -66.8 Q 292.5 -66.3 291.8 -65.2 Z M 331 -40.8 L 331 -40.8 L 331 -40.8 Q 329 -36 322.7 -36 L 322.7 -36 L 322.7 -36 Q 319.5 -36 317.4 -38.2 L 317.4 -38.2 L 317.4 -38.2 Q 315.8 -40.1 315.8 -42.2 L 315.8 -42.2 L 315.8 -42.2 Q 315.8 -47 318 -57.5 L 318 -57.5 L 322.7 -82.1 L 335.7 -83.3 L 329.5 -51 L 329.5 -51 Q 328.4 -46.2 328.4 -44.6 L 328.4 -44.6 L 328.4 -44.6 Q 328.4 -40.9 331 -40.8 Z M 351.7 -40.8 L 351.7 -40.8 L 351.7 -40.8 Q 349.8 -36 343.4 -36 L 343.4 -36 L 343.4 -36 Q 340.2 -36 338.2 -38.2 L 338.2 -38.2 L 338.2 -38.2 Q 336.5 -40.1 336.5 -42.2 L 336.5 -42.2 L 336.5 -42.2 Q 336.5 -47 338.7 -57.5 L 338.7 -57.5 L 343.4 -82.1 L 356.4 -83.3 L 350.2 -51 L 350.2 -51 Q 349.1 -46.2 349.1 -44.6 L 349.1 -44.6 L 349.1 -44.6 Q 349.1 -40.9 351.7 -40.8 Z M 383.1 -48.1 L 383.1 -48.1 L 383.1 -48.1 Q 384.7 -47 384.7 -44.6 L 384.7 -44.6 L 384.7 -44.6 Q 384.7 -42.2 383.5 -40.6 L 383.5 -40.6 L 383.5 -40.6 Q 382.3 -39.1 380.3 -38.1 L 380.3 -38.1 L 380.3 -38.1 Q 376.2 -36 371.8 -36 L 371.8 -36 L 371.8 -36 Q 367.4 -36 364.8 -36.9 L 364.8 -36.9 L 364.8 -36.9 Q 362.2 -37.9 360.4 -39.7 L 360.4 -39.7 L 360.4 -39.7 Q 357 -43.1 357 -49.3 L 357 -49.3 L 357 -49.3 Q 357 -59 362.3 -64.8 L 362.3 -64.8 L 362.3 -64.8 Q 367.9 -71.2 377.7 -71.2 L 377.7 -71.2 L 377.7 -71.2 Q 383.8 -71.2 386.8 -68.6 L 386.8 -68.6 L 386.8 -68.6 Q 389 -66.7 389 -63.6 L 389 -63.6 L 389 -63.6 Q 389 -52.3 369.6 -52.3 L 369.6 -52.3 L 369.6 -52.3 Q 369.3 -50.6 369.3 -49.2 L 369.3 -49.2 L 369.3 -49.2 Q 369.3 -46.3 370.6 -45.2 L 370.6 -45.2 L 370.6 -45.2 Q 372 -44 374.4 -44 L 374.4 -44 L 374.4 -44 Q 376.8 -44 379.4 -45.2 L 379.4 -45.2 L 379.4 -45.2 Q 382 -46.3 383.1 -48.1 Z M 370 -55 L 370 -55 L 370 -55 Q 374.6 -55 377.2 -57.9 L 377.2 -57.9 L 377.2 -57.9 Q 379.8 -60.6 379.8 -64.8 L 379.8 -64.8 L 379.8 -64.8 Q 379.8 -66.3 379.3 -67.1 L 379.3 -67.1 L 379.3 -67.1 Q 378.7 -67.9 377.7 -67.9 L 377.7 -67.9 L 377.7 -67.9 Q 376.6 -67.9 375.6 -67.5 L 375.6 -67.5 L 375.6 -67.5 Q 374.7 -67.1 373.8 -65.7 L 373.8 -65.7 L 373.8 -65.7 Q 371.4 -62.5 370 -55 Z M 411.3 -55.2 L 411.3 -55.2 L 411.3 -55.2 Q 413.6 -59.3 413.6 -63.5 L 413.6 -63.5 L 413.6 -63.5 Q 413.6 -66.2 411.6 -66.2 L 411.6 -66.2 L 411.6 -66.2 Q 410 -66.2 408.4 -63.6 L 408.4 -63.6 L 408.4 -63.6 Q 406.8 -61 406.3 -57.6 L 406.3 -57.6 L 402.9 -37.3 L 389.7 -36 L 396.2 -69.9 L 406.8 -71.2 L 405.6 -64.7 L 405.6 -64.7 Q 408.8 -71.2 415.8 -71.2 L 415.8 -71.2 L 415.8 -71.2 Q 419.5 -71.2 421.5 -69.3 L 421.5 -69.3 L 421.5 -69.3 Q 423.5 -67.3 423.5 -63.4 L 423.5 -63.4 L 423.5 -63.4 Q 423.5 -59.5 421 -57 L 421 -57 L 421 -57 Q 418.4 -54.5 413.9 -54.5 L 413.9 -54.5 L 413.9 -54.5 Q 412 -54.5 411.3 -55.2 Z M 444.9 -44.5 L 444.9 -44.5 L 444.9 -44.5 Q 441.6 -41 435.5 -41 L 435.5 -41 L 435.5 -41 Q 427.9 -41 426.3 -46.6 L 426.3 -46.6 L 426.3 -46.6 Q 425.8 -48.3 425.8 -50.1 L 425.8 -50.1 L 425.8 -50.1 Q 425.8 -52 426.2 -53.9 L 426.2 -53.9 L 429.2 -69.9 L 442.2 -71.2 L 438.6 -52.6 L 438.6 -52.6 Q 438.5 -51.7 438.3 -50.8 L 438.3 -50.8 L 438.3 -50.8 Q 438.1 -49.9 438.1 -49 L 438.1 -49 L 438.1 -49 Q 438.1 -48.1 438.5 -47.5 L 438.5 -47.5 L 438.5 -47.5 Q 438.8 -46.9 439.2 -46.5 L 439.2 -46.5 L 439.2 -46.5 Q 440 -46 441.4 -46 L 441.4 -46 L 441.4 -46 Q 442.7 -46 443.9 -47.6 L 443.9 -47.6 L 443.9 -47.6 Q 445.1 -49.3 445.7 -52.2 L 445.7 -52.2 L 449.2 -69.9 L 461.8 -71.2 L 457 -46 L 457 -46 Q 454.6 -33.7 449.8 -28.9 L 449.8 -28.9 L 449.8 -28.9 Q 447.3 -26.4 444.1 -25.4 L 444.1 -25.4 L 444.1 -25.4 Q 440.8 -24.4 436.7 -24.4 L 436.7 -24.4 L 436.7 -24.4 Q 429.9 -24.4 426.1 -26.5 L 426.1 -26.5 L 426.1 -26.5 Q 422.3 -28.6 422.3 -32.1 L 422.3 -32.1 L 422.3 -32.1 Q 422.3 -34.8 424.2 -36.3 L 424.2 -36.3 L 424.2 -36.3 Q 426.2 -37.8 429.3 -37.8 L 429.3 -37.8 L 429.3 -37.8 Q 432 -37.8 434 -36.6 L 434 -36.6 L 434 -36.6 Q 435.3 -35.9 435.8 -35 L 435.8 -35 L 435.8 -35 Q 434.4 -33.7 434.4 -31.6 L 434.4 -31.6 L 434.4 -31.6 Q 434.4 -28.8 436.9 -28.8 L 436.9 -28.8 L 436.9 -28.8 Q 441.1 -28.8 443.6 -38.5 L 443.6 -38.5 L 443.6 -38.5 Q 444.3 -41.4 444.9 -44.5 Z" fill="url(#editing-outline-gradient)"></path></g></g><style>text {
  font-size: 64px;
  font-family: Arial Black;
  dominant-baseline: central;
  text-anchor: middle;
}</style></svg>